<svg xmlns="http://www.w3.org/2000/svg" fill="none" viewBox="0 0 45 45"><path fill="url(#a)" d="M34.6665.5h-23.375C5.5961.5.979 5.117.979 10.8125v23.375C.979 39.8829 5.596 44.5 11.2915 44.5h23.375c5.6954 0 10.3125-4.6171 10.3125-10.3125v-23.375C44.979 5.1171 40.3619.5 34.6665.5Z"/><path fill="url(#b)" d="M34.6665.5h-23.375C5.5961.5.979 5.117.979 10.8125v23.375C.979 39.8829 5.596 44.5 11.2915 44.5h23.375c5.6954 0 10.3125-4.6171 10.3125-10.3125v-23.375C44.979 5.1171 40.3619.5 34.6665.5Z"/><path fill="#fff" d="M22.9806 5.3125c-4.6678 0-5.2538.0205-7.087.1038-1.8298.0839-3.0788.3735-4.1715.7985-1.1306.439-2.0895 1.0263-3.0448 1.982-.9562.9554-1.5435 1.9143-1.9838 3.0444-.4263 1.0931-.7162 2.3426-.7985 4.1715-.082 1.8334-.1035 2.4195-.1035 7.0875 0 4.6679.0206 5.252.1038 7.0852.0842 1.8298.3738 3.0788.7986 4.1716.4393 1.1305 1.0266 2.0894 1.9822 3.0447.955.9562 1.914 1.5448 3.0437 1.9838 1.0937.425 2.3428.7147 4.1723.7985 1.8334.0834 2.4188.1038 7.0864.1038 4.6683 0 5.2523-.0204 7.0855-.1038 1.8298-.0838 3.0802-.3735 4.1738-.7985 1.1301-.439 2.0876-1.0276 3.0426-1.9838.9561-.9553 1.5432-1.9142 1.9838-3.0442.4224-1.0933.7126-2.3427.7985-4.1718.0823-1.8332.1038-2.4176.1038-7.0855 0-4.668-.0215-5.2537-.1038-7.0871-.0859-1.8298-.3761-3.0786-.7985-4.1714-.4406-1.1306-1.0277-2.0895-1.9838-3.045-.956-.956-1.9121-1.5432-3.0436-1.9817-1.0957-.4252-2.3454-.715-4.1752-.7987-1.8334-.0833-2.417-.1038-7.0864-.1038h.0054Zm-1.5419 3.0974c.4577-.0007.9683 0 1.5419 0 4.5892 0 5.133.0165 6.9452.0988 1.6758.0766 2.5854.3566 3.1913.592.8021.3114 1.3739.6838 1.9751 1.2856.6016.6015.9739 1.1744 1.2862 1.9765.2353.605.5156 1.5146.5919 3.1904.0823 1.8119.1002 2.356.1002 6.943s-.0179 5.1313-.1002 6.9431c-.0766 1.6758-.3566 2.5853-.5919 3.1905-.3115.8021-.6846 1.3733-1.2862 1.9745-.6015.6016-1.1727.9738-1.9751 1.2855-.6052.2363-1.5155.5156-3.1913.5922-1.8119.0824-2.356.1002-6.9452.1002-4.5895 0-5.1334-.0178-6.9452-.1002-1.6758-.0773-2.5853-.3573-3.1917-.5926-.802-.3116-1.375-.6839-1.9766-1.2854-.6015-.6016-.9738-1.1731-1.2861-1.9756-.2353-.6051-.5156-1.5147-.592-3.1905-.0823-1.8119-.0988-2.3561-.0988-6.946 0-4.5897.0165-5.1311.0989-6.943.0766-1.6758.3566-2.5854.5919-3.1912.3116-.8022.6846-1.375 1.2863-1.9766.6016-.6016 1.1744-.974 1.9766-1.2861.6058-.2364 1.5157-.5157 3.1915-.5927 1.5856-.0716 2.2-.0931 5.4033-.0967v.0043Zm10.7165 2.8538c-1.1386 0-2.0625.9229-2.0625 2.0618 0 1.1387.9239 2.0625 2.0625 2.0625 1.1387 0 2.0625-.9238 2.0625-2.0625s-.9238-2.0625-2.0625-2.0625v.0007Zm-9.1746 2.4098c-4.8744 0-8.8265 3.9521-8.8265 8.8267 0 4.8745 3.9521 8.8247 8.8265 8.8247 4.8745 0 8.8252-3.9502 8.8252-8.8247 0-4.8744-3.951-8.8267-8.8256-8.8267h.0004Zm0 3.0974c3.164 0 5.7292 2.5649 5.7292 5.7293 0 3.164-2.5652 5.7293-5.7292 5.7293-3.1643 0-5.7292-2.5653-5.7292-5.7293 0-3.1644 2.5649-5.7293 5.7292-5.7293Z"/><defs><radialGradient id="a" cx="0" cy="0" r="1" gradientTransform="matrix(0 -44 41 0 12.6665 47.8889)" gradientUnits="userSpaceOnUse"><stop stop-color="#FD5"/><stop offset=".1" stop-color="#FD5"/><stop offset=".5" stop-color="#FF543E"/><stop offset="1" stop-color="#C837AB"/></radialGradient><radialGradient id="b" cx="0" cy="0" r="1" gradientTransform="matrix(4 19 -79 16 -6.3912 3.6696)" gradientUnits="userSpaceOnUse"><stop stop-color="#3771C8"/><stop offset=".128" stop-color="#3771C8"/><stop offset="1" stop-color="#60F" stop-opacity="0"/></radialGradient></defs></svg>