<svg xmlns="http://www.w3.org/2000/svg" fill="none" viewBox="0 0 22 22"><path fill="#51A6E2" d="M11.451.84C5.645.84.941 5.543.941 11.35s4.704 10.51 10.51 10.51c5.807 0 10.51-4.704 10.51-10.51S17.258.84 11.452.84Zm5.163 7.2-1.725 8.13c-.128.575-.471.715-.95.444l-2.627-1.937-1.268 1.22c-.14.14-.258.26-.53.26l.187-2.675 4.87-4.4c.212-.186-.047-.292-.327-.106l-6.018 3.789-2.594-.81c-.564-.177-.577-.563.119-.834l10.133-3.908c.47-.17.882.114.729.826v.001Z"/><path fill="#fff" d="m16.614 8.04-1.725 8.13c-.128.575-.471.715-.95.444l-2.627-1.937-1.268 1.22c-.14.14-.258.26-.53.26l.187-2.675 4.87-4.4c.212-.186-.047-.292-.327-.106l-6.018 3.789-2.594-.81c-.564-.177-.577-.563.119-.834l10.133-3.908c.47-.17.882.114.729.826v.001Z"/></svg>