<svg xmlns="http://www.w3.org/2000/svg" fill="none" viewBox="0 0 40 39"><path fill="#0063A9" d="M26.45 0H14.49C3.56 0 .96 2.6.96 13.5v11.97C.96 36.4 3.54 39 14.46 39h11.97c10.93 0 13.53-2.58 13.53-13.5V13.52C39.96 2.6 37.38 0 26.45 0Zm6 27.83H29.6c-1.08 0-1.4-.88-3.33-2.8-1.69-1.63-2.4-1.83-2.83-1.83-.59 0-.75.16-.75.97v2.56c0 .7-.22 1.1-2.03 1.1a11.1 11.1 0 0 1-8.67-5.2 22.67 22.67 0 0 1-4.5-9.43c0-.42.17-.81.98-.81h2.85c.73 0 1 .33 1.28 1.08 1.38 4.06 3.73 7.6 4.69 7.6.37 0 .53-.17.53-1.08V15.8c-.13-1.9-1.14-2.07-1.14-2.76a.7.7 0 0 1 .73-.65h4.47c.61 0 .81.3.81 1.04v5.64c0 .61.27.82.45.82.37 0 .65-.2 1.32-.88a23.4 23.4 0 0 0 3.5-5.8 1.22 1.22 0 0 1 1.23-.82h2.85c.85 0 1.03.43.85 1.04a35.5 35.5 0 0 1-3.82 6.56c-.3.47-.43.7 0 1.26.28.42 1.28 1.26 1.95 2.05.98.97 1.79 2.1 2.4 3.33.24.8-.17 1.2-.98 1.2Z"/><path fill="#fff" d="M32.44 27.83H29.6c-1.08 0-1.4-.88-3.33-2.8-1.69-1.63-2.4-1.83-2.83-1.83-.59 0-.75.16-.75.97v2.56c0 .7-.22 1.1-2.03 1.1a11.1 11.1 0 0 1-8.67-5.2 22.67 22.67 0 0 1-4.5-9.43c0-.42.17-.81.98-.81h2.85c.73 0 1 .33 1.28 1.08 1.38 4.06 3.73 7.6 4.69 7.6.37 0 .53-.17.53-1.08V15.8c-.13-1.9-1.14-2.07-1.14-2.76a.7.7 0 0 1 .73-.65h4.47c.61 0 .81.3.81 1.04v5.64c0 .61.27.82.45.82.37 0 .65-.2 1.32-.88a23.4 23.4 0 0 0 3.5-5.8 1.22 1.22 0 0 1 1.23-.82h2.85c.85 0 1.03.43.85 1.04a35.5 35.5 0 0 1-3.82 6.56c-.3.47-.43.7 0 1.26.28.42 1.28 1.26 1.95 2.05.98.97 1.79 2.1 2.4 3.33.24.8-.17 1.2-.98 1.2Z"/></svg>