<svg xmlns="http://www.w3.org/2000/svg" fill="none" viewBox="0 0 20 20"><path fill="#5EC76B" d="M18.22 5.25C15.385.857 9.58-.445 5.092 2.28.712 5.006-.7 10.947 2.135 15.327l.23.353-.949 3.553 3.554-.95.352.231c1.533.827 3.201 1.302 4.856 1.302a9.671 9.671 0 0 0 5.085-1.424c4.38-2.848 5.683-8.666 2.957-13.169v.028Zm-2.482 9.141c-.475.706-1.071 1.18-1.899 1.302-.474 0-1.071.23-3.43-.705-2.008-.95-3.676-2.495-4.856-4.272-.705-.827-1.072-1.899-1.18-2.97 0-.95.353-1.777.95-2.373.23-.231.474-.353.705-.353h.596c.23 0 .475 0 .597.475.23.596.827 2.02.827 2.142.122.122.068 1.031-.474 1.547-.299.339-.353.352-.23.596a14.922 14.922 0 0 0 1.654 2.021c.705.597 1.424 1.071 2.25 1.424.232.122.476.122.598-.122.122-.23.705-.827.949-1.072.23-.23.353-.23.597-.122l1.898.95c.231.122.475.23.597.352.122.353.122.828-.122 1.18h-.027Z"/><path fill="#fff" d="M15.738 14.391c-.475.706-1.071 1.18-1.899 1.302-.474 0-1.071.23-3.43-.705-2.008-.95-3.676-2.495-4.856-4.272-.705-.827-1.072-1.899-1.18-2.97 0-.95.353-1.777.95-2.373.23-.231.474-.353.705-.353h.596c.23 0 .475 0 .597.475.23.596.827 2.02.827 2.142.122.122.068 1.031-.474 1.547-.299.339-.353.352-.23.596a14.922 14.922 0 0 0 1.654 2.021c.705.597 1.424 1.071 2.25 1.424.232.122.476.122.598-.122.122-.23.705-.827.949-1.072.23-.23.353-.23.597-.122l1.898.95c.231.122.475.23.597.352.122.353.122.828-.122 1.18h-.027Z"/></svg>