<svg xmlns="http://www.w3.org/2000/svg" fill="none" viewBox="0 0 72 64"><path fill="#FEFEFE" fill-rule="evenodd" d="M6.07 39.48c.12-.36.04-.36.43-.4-.04.04-.08.16-.16.24-.23.24 0 .04-.27.16Zm-3.93-7.34c-.23-.6-.31-1.5.16-1.8 0 .3.04.66 0 .97l-.16.83Zm1.02 5.34-.15.15-.12-.23-.08-.75c-.55-.31-1.14-.9-.7-1.76.58-1.22.35-.99.15-2.32.43.16 1.02.55 1.34.82.66.63.98.04 1.76.12.24.2.47.4.47.86L5.4 35c.35.16.55.36.86.55.24-.12 1.06-.7 1.22-.86.32-.4.43-1.02.43-1.65a3.54 3.54 0 0 1-.43-.86c-.12-.32.08-.79.08-1.22.7-.75.82-.4 1.77-.55.62 1.41.27 1.45-.04 2.67l-.12.67c.12.74 1.73.08 2.2.11.31.55.15 1.3 1.21 1.03.28-.71-.23-.52-.15-1.3.11-.24.27-.35.39-.63.23-.5.35-.82.82-1.14.43-.27.24-.27.55-.55.55-.03.63.16 1.22.08.67-.08.94 0 1.53 0 .12-.27.08-.35.31-.55.63-.59.24-1.45-.04-2.12-.11-.23-.2-.43-.31-.58-.2-.32-.16-.36-.27-.71-.28-.7-.71-.28-.4-1.33.51.23.47.66.79.9.35.23.98.08 1.45.04.35-1.45.2-.67.51-1.45-.35-.52-.59-.67-.63-1.34-.08-1.02-.31-.78.32-1.45.74.08 1.25.4 1.68.74.4.16 1.61-.27 1.97-.47 1.02-.62 1.53.47 2.82.16.59-.16.43-.12.79-.47.94-.94 1.02-.67 1.53-1.02-.16-.55-.32-.47-.55-.83.23-.82.9-1.25 1.06-2.04.11-.5-.28-.31-.67-.2-.98.28-.82-.23-1.3.87-.2.43 0 .75-.15 1.18-.32.7-.79 1.1-1.61.94.12-.31.31-.47.35-.86.04-.75.55-1.18-.27-1.45l-1.34 1.96c-.74.04-1.6-.04-2.12-.4-.11-.5-.11-.74-.31-1.21-.2.08-.35.12-.63.08 0 1.02.12.82-.43 1.41-.78 0-.51-.12-.9-.51-.55-.55-.24-.55-.67-.94-.24.55-.35.5-.47 1.25-.08.51-.28.9-.43 1.38-.6 1.6.27 1.96-1.53 1.96a4.74 4.74 0 0 1-.67 1.57l-.67.04c-.23.23-.9.86-.86 1.37.35.47.35.2.9.24.28.04.79.27 1.1.35.79.28 1.06.9.59 1.8-.75.16-.63.24-1.33 0a2.41 2.41 0 0 0-.75-.07c-.31.11-.24.23-.2.59-.35.07-.62.2-1.02.15l-.15-.47a2.2 2.2 0 0 1-.6-.4c-.66-.62-.27-.23-1.6-.81-.16-.08-.16-.12-.4-.2-.5.08-1.1.67-1.52.94l-1.34-.04c-.4.2-.5.55-.78.83l-.9.82c.03.86.27.4-.2 1.22-.28.5-.47.43-1.02.2.2-.64-.16-1.42-.16-2.17-.43-.11-.98-.2-1.5-.23.05-.43.09-.79.17-1.18.04-.43-.08-.82 0-1.33.07-.75.27-1.57.31-2.24l-.43-.16c.08-.43.31-1.02.47-1.45.08-.27.35-1.37.55-1.45.4-.16.98.7 1.73.31-.08.51-.63 1.1-.51 1.85.03.23.39.9.58.98.32.2.55-.08.83-.24.43-.2.39-.2.47-.7.08-.55.16-.2.23-.63.04-.32-.04-.35.12-.67.43-.82.32-.12.32-1.69.23-.15.31-.2.47-.39-.08-.74-1.46-1.8-.55-2.82.23-.28.35-.55.59-.79h.66c.04-.43.04-.4.32-.59.5.08.43.28.78.47.36.2.7 0 .98-.07l.36.15c.2-.08-.04-.04.31-.08l.31.36c.71-.12.9-.24 1.06-.95a2.34 2.34 0 0 1-1.33-.86c-.35-.55-.7-.63-.7-1.57.46.2.62.28.97-.16.55 0 .51.08.9.44l-.11-.75c1.06-.2.5-.23 1.02-.9.31.12.43.04.7.27.24.2.36.28.71.36.4.11.94.07 1.3.23l.2.24s0 .04.03.04c.43-.12.55-.28 1.02-.36l-.08.43-.47.04c-.15.83.83.67 1.14.95l.63.43c.31.27.16.39.78.39l.24-.43c.4.08.35.2.67.35.63-.27 1.72-.2 1.49-1.06-.12-.23-1.06-.78-.83-1.45.2-.31.95-.78 1.46-.82.31.55.27.82.47 1.37.15.35.15.35.23.78.12 1.02.87.48 1.45.63 1.89.51 1.18-1.92 1.57-3.14.51-.04.08.2.67-.12.94.44.87.63 1.02 1.7.12.93 0 .46.51 1.01h.75c.55-.63.39-.35 1.33-.47l.04.04.24.24.08-.44-.32.04c-1.14-2.43-1.18-1.6-1.45-2.2-.43-.97.04-.43-.82-.97-.48-.28-.24-.12-.63-.08-.28 0-.51-.12-.79-.16l-.23.27-.75-.03c-.67 1.1-.5.35-.74 1.21-.36.12-1.57.43-1.65-.27.04-.12.12-.47.2-.63.11-.35.15-.16.46-.35.24-.16.2-.24.4-.44.31-.3 1.14-.7 1.25-1.13.08-.44.08-.98.16-1.46.43-.27.24.08.51-.39.55-.98.78-.78.75-2.08l-1.57-.35-.79.55c-.08.12-.16.31-.23.47-.12.2-.2.23-.32.4 0 0 .04.03.04.07l.04.08s.04.04.04.08c.27.04.23-.04.4-.04.34 0-.05.12.54 0 .04.55-.04.31.08.74.04.12 0-.04.04.24a6.5 6.5 0 0 0-.86 1.18c-.32.55-.48.78-.83 1.25-.47.67-.4.55-1.1.94-.43.24-.78.63-1.49.71-.31-.27-.04-.16-.4-.31-.5 1.21-.3.11-.74.86-.23.4-.08.43-.08.43 0 .32-.15.55-.43.63-.78.23-.23.08-.74.47-.28-.08-.12-.04-.36-.24l-.47.12-.31-.2.2-.46c-.24-.16-.28-.08-.44-.16-.31-.2.08-.08-.31-.35.35-.95.7-.71 1.14-1.03.2-.11.23-.2.47-.3 1.22.5.35-1.1-.04-1.42-1.22.27-1.02.2-1.65 1.02-.55.74-1.06.4-1.45.43 0 0-.9.24-.86-.31.2-.47.47-.6.7-.98.36.03.2.07.6.07.7-.86 1.13-1.1.58-2.7.4-.24.2-.12.35-.55.24-.67.67-.32 1.06-.28.36 0 .43.04.79.08-.16.9-.36.98.23 1.33.24.16.4.12.63.04.04-.43.04-.59.2-.86l.39.04c.23-.35.04-.24.31-.4.2.2.2.28.36.48.15.23.23.2.43.43.08.59-.08 1.37-.35 1.69h-1.3l-.2.27c.32.51.28.24.71.55l-.24 1.1c.51-.2.79-.47 1.06-.98.32-.63.4-.12.9-1.14.63-1.25.6-.86.99-1.06.31-.16.2-.31.63-.67.2-.15.23-.11.31-.43l-.35.4c-.4.03-.71-.36-1.1-.52l.43-1.29.63.16c.23-.24.5-.71.7-.98.36-.44.47-.55.9-.9.95-.71 1.58-.36 2.64.03 2.23.75 4.35 2.08 4.94-.12 1.69.2.67.4 2.94.16.24.24.36.24.79.35.04-.7.16-.94-.04-1.57.47-.15.78-.23 1.22.08.43.32.55.51.47 1.18 1.88-.2 1.84-.23 3.76-.08.24.32.28.51.63.67.67-.2 1.06-1.26 1.96-.98.99.31 1.93.08 2.28.9 1.02-.04 1.26-.67 2.12-.47a7.1 7.1 0 0 0 2.59.2c.2.27 1.8 1.8 2.12 2 .47.27.98.2 1.57.47.27.12.47.23.7.35 1.42.7.12.4 2.05 2.6.15.19.47.42.58.66.28.35.16.31.67.5 2.12.68 3.34 2.32 4.71 3.97.7.83 1.37 1.85 2 2.9.55.95 1.1 2.24 1.5 3.34.27.75.54.94.94 1.5.35.5.58 1.05.7 1.8.12.74.08 1.49.2 2.24.12.9.5 1.17.67 1.88l.43 4.47c-.4.47-.47.12-.63.95-.24 1.25-.28 3.02-1.1 3.84-.43.4-.59.32-1.14.47-1.02.36-.12 3.26-7.61 3.93-.79.08-.67 0-1.18.43-.35.27-.55.55-.86.82-1.06.9-1.5-.12-2.32-.31-.08.27-.15.82-.31 1.06-.55.08-.55-.24-1.14-.2-1.22.08-.94 1.18-3.18-.15-.47-.28-1.25-.79-1.8-.87-1.06-.08-1.85.32-1.85-.94-.66.2-.9 1.26-1.57.78-.23-.15-.35-.5-.55-.7-.31-.36-.59-.28-1.13-.24-.2-.59-.2-.74-.55-1.25-.4-.04-.63.08-.9.15-.16-.47-.2-.62-.56-.86-.74 0-1.68.9-1.92 1.45-.63 1.53-.08 4.36.94 5.54.63.7 1.34.86 2.6.94 2.23.12 10.63.86 11.53 2.31-.63 1.77-12.32 3.54-14.01 4.95.04 1.1 1.96 1.3 2.83 1.45 4.08.7 8.28.47 12.44.59-1.53 1.22-4.9 2.4-7.19 2.98a40.4 40.4 0 0 1-9.06 1.26c-5.85.2-13.23-.43-17.82-2.79-2.59-1.3-4.86-3.61-1.06-5.14 5.34-2.12 16.84-2.43 23.08-2.83 1.41-.07 3.45-.11 4.79-.39-1.14-.7-25.16-1.1-28.8-1.33 2.11-.16 4.39-.47 6.5-.75 2.09-.27 4.48-.31 6.05-1.25.86-.51 1.41-.9 1.8-1.85.36-.9.4-2.27-.2-2.9-.23-.28-1.84-1.26-2.46-1.22-.6.04-.67.43-1.26.51-.67.08-1.02 0-1.65.24l.2.78c-.79.16-2.24.94-2.83.28 0-1.1 1.06-.75.24-1.89-.9.36-2.9 2.28-3.8 2.95-1.7 1.3-3.3 1.21-5.07.2-.7-.4-.94.03-1.77.07-.7.04-1.41-.2-2.08-.27l.16-.12c.51-.32.98-.32 1.57-.24l.27-.23c.24.04.28.11.51.08.51-.16.24-.04.63 0 .51.03.87-.28.87-.75-.24.04-.32.08-.55.04v-.43c-.32.04-.63.23-.95.27-.23.04-.47 0-.7.04-.24.04-.4.12-.55.16-.86.16-1.02-.55-2.32-.24-.23-.31-.35-.2-.74-.15-.47-.51-.6-1.53-1.5-1.57-.35-.04-.7 0-.97.15L9 40.46c-.31.08-.2.08-.43.2-.35-.24-.24-.32-.86-.24.39-.55 1.21-.47.98-1.73-.08-.5-.28-.55-.55-.82-.35-.36-.43-.24-.63-.7-.55-.05-.7.19-1.33.19-.75-.04-.67.2-.71.9-.7.08-.51-.08-.9-.43-1.1.04-.75.04-1.42-.35ZM34.91 1.57l-.08.86-.98.04-1.3-.24-1.88 1.14c-.54.12-4.16-1.88-5.73-1.37-1.96.63-2.5 2.2-3.06 2.51-.78.47-.9.35-1.06.86-1.72-.23-1.13.12-2.11.44l.2-.55c-.44-.12-.99-.2-1.34-.28-.47-.12-.9-.08-1.34.12-.74.4-1.17.9-1.37 1.88l.23.28-.3 1.25c-.91.43-.95.4-1.46 1.06-.55.75-.63.7-.7 1.8-.67.13-.83.44-1.15.87-.74 1.06-3.25-.43-2.86 3.02-1.37.04-1.14.47-2.32 1.3-.66.43-1.37 1.37-1.37 2.31 0 .9.47 1.65.43 2.04-.63-.15-.63.12-1.21-.15-.99-.47-1.73-.24-2.32.59-.43.62-.27.31-.55 1.17-.27.87-.86 1.85-.63 2.36.36.67.24.5.12 1.3-.23 1.64-.12 2.15-.23 3.05-.08.67-.28.67-.4 1.22-.23 1.06.12 2 .32 2.94.2.95-1.26 2.04.2 3.85.7.9.39.9.58 1.1.12.12.24.08.51.04-.2.63 1.61 1.14 1.85 1.3.39.19.66.39 1.25.39.98 0 .94-.36 1.14-.55.08.35.2.39.4.66.3.43 1.1 1.57 1.4 1.8-.07.13-.15.2-.11.36.59.24 1.41.16 2.04.04.2.51.5 1.02.94 1.3.35.23 1.45.39 1.92.39l.32 1.37c1.17.16 2.12.47 3.37.24.51-.08.9.23 1.41.43.52.2 1.06.31 1.65.35 3.02.2 4.6-2.12 5.34-2.47.79.67 1.37.86 2.7.59 1.73-.4 1.77-.35 2.2-1.38 1.07-.15 1.07-.03 1.97-.47l1.14.63c.35 2.55-2.71 2.87-4.44 3.06-1.25.16-9.3.9-10.04 1.26-.95.47-1.1 1.92-.28 2.51.94.67 5.5.47 7.02.59-.2.08-2.98.67-4 .98a7.3 7.3 0 0 0-3.22 1.8c-.9.9-.94 2.63-.15 3.77 3.06 4.6 13.77 5.77 19.42 5.73 6.4 0 11.74-.78 17-3.06.74-.31 2.78-1.25 3.06-1.92.27-.7.08-1.5-.32-1.89-.5-.54-1.02-.54-1.96-.54-3.37 0-6.44-.08-9.73-.4.35-.2 6.28-1.68 7.8-2.2 1.3-.43 2.56-.94 3.07-1.96.82-1.65-.7-2.55-1.77-2.98-2.2-.9-5.8-1.33-8.43-1.57-.79-.08-1.54-.12-2.32-.2-.9-.03-1.45.04-1.92-.55-.51-.62-1.06-3.21-.32-4 .7.08.51.24.75.75.16.35.63.47.94.66.16.08.27.16.47.24.32.2.2.12.43.4.28.27.51.5.94.66.55.2.83.08 1.42-.04.35-.08.98.12 1.41.12 1.37.04.98.08 2.4.86 2.2 1.3 3.21.24 3.76.28.51 0 .63.27 1.34.07.55-.15.55-.47 1.02-.43 2.12.2 2.78-1.33 3.18-1.53.47-.23 6.63-.2 8.4-3.8.23-.47.27-.32.74-.51.23-.12.59-.36.78-.48.83-.66 1.22-2.07 1.42-3.53.27-1.76.2-.74.7-1.72.36-.67.2-1.42.08-2.16-.2-1.34-.12-3.22-.63-4.32-.43-.94-.35-.86-.43-2.04-.23-3.5-1.25-3.18-2.08-5.34a17.5 17.5 0 0 0-1.6-3.33 28.09 28.09 0 0 0-3.74-4.87c-.23-.23-.43-.4-.66-.59-.43-.43-.87-.7-1.38-1.02-.35-.2-1.53-.67-1.68-.82l-2.08-2.83c-.36-.5-.83-.63-1.46-.94a7.14 7.14 0 0 0-.82-.43c-.31-.12-.75-.04-1.02-.24-.55-.39-1.57-2.04-2.79-2.12-.94-.04-1.06.08-2.12-.15-.98-.24-1.17-.16-2 .2-.39-.12-.62-.28-1.13-.4-.52-.12-.75-.08-1.26-.23-1.06-.36-1.73.11-2.43.47-1.14-.44-1.89-.36-3.22-.36-.63-1.13-2.67-1.96-3.89-.7Z" clip-rule="evenodd"/><path fill="#FEFEFE" fill-rule="evenodd" d="M9.76 19.46c-.04 1.02.47 1.06.82 1.45-.2.99-.27.55-.86.87-.24-.28-.63-.7-.75-1.06.2-.16.4-.2.4-.47l-.48.2c-.31-.16-.04-.16-.39-.12-.23 1.49.43 2.39-.04 2.66-.15.08 0-.04-.15.08-.16.16-.28.67-1.14.7l-.24.95c.94-.16 1.41-.67 2.47-.59l.28.43c-.2 1.02-.7 1.1-.7 2 0 1.1 1.4.36 1.8.2.15-.08.35-.78.74-.86.24 0 .51.04.79-.04.27-.08.27-.2.55-.28.78-.27.59.04 1.18-.5 0-.4-.12-.4-.24-.75-.12-.4 0-.43-.12-.7-.43.03-.2.03-.47.3-.16.16-.27.16-.47.32-.4.27-.35.59-1.06.59-1.02 0-.75-1.65-.7-2.4.5-.23.23-.03.54-.5 1.85-.32 1.38-.08 1.53-1.1.12-.83.4-.71-.35-1.93-.47-.74-.4-.11-1.1-.55-.47.24-.39 0-.9.47-.51.4-.7.32-.94.63ZM20.4 36.02c.35-.35.3-.11.7-.35-.08-1.26-1.8.04-2.04.31l-.63.71c-.31.35-.12.47-.08.98l-.4.43h-.62c-.59.7-1.14 1.02-.08 1.73.08-.31.08-.24.67-.7 0 0 .04 0 .08-.05 0-.04.04-.04.08-.04.23.28.27.67.31.63l.04.04c.47-.2.63-.31 1.18-.43.35-.08.27-.16.5-.31 1.03-.71.24-.24.95-.32.2-.04.2-.08.51-.08.2.4.98 1.06 1.57 1.18.35-.27.55-.35.75-.7l-.4-.63c.08-.4.16-.87.24-1.22.27-.23.82-.4 1.06-.63.35-.31.7-1.17.04-1.3-.4-.07-.67.09-.94.05-.51-.12-.44-.28-1.1-.2-.47 1.02-.51.31-.95 1.57-.15.47-.78 1.1-1.45.59.04-.4.16-.24.16-.63-.04-.2-.16-.43-.16-.63Zm7.33-5.14c.59-.43.79-.55.83-1.06l-.99-1.06H26.4c-.36.32-.36.2-.67.4-.16.07-.16.11-.24.3-.03.13-.03.13-.07.2l-.12.24-.9-.2-.44.36c-.66-.2-.23-.2-1.06-.08-.39.59-.15.75-.98 1.06-.31.12-.5.31-.78.31-.32 0-.59-.15-.87-.11-.07.03-.47.27-.74.35-.51.2-1.73.55-1.88 1.18.03.74.2.66.9.66.47 0 .43.12.7.16.24.04.51-.04.83-.04.16.28.35.51.86.43.16-.35.28-.82.32-1.3.43-.23.5-.3.78-.7.35.12.82.47 1.22.47l.04-.98.35-.2c.12-.07.12-.11.31-.27l.32 1.1c.47-.04.47-.16.59-.59.59-1.69.86-.94 1.8-1.22.35.2.51.4 1.06.6Zm8.83-12.36c-.55.59-1.02.98-1.53 1.53l-2.79-.43c-.55.63-1.33 1.25-2 1.84l-.63.63c1.14 0 1.03-.12 1.03.51 2.11-.35.74-.63 2.08-1.8 1.33.23 1.13.2 1.64 2.12a4 4 0 0 0 .63-1.38c.28-.78.28-.59.94-.98.55-.12 1.18.9 1.8-.2.2-.35.13-.27.56-.43.5-.15 1.06-.27 1.53-.47l-.24-1.06-3.02.12Zm-1.61 7.26-.43-.2a3.4 3.4 0 0 0-1.5.95c-.19.23-.27.5-.42.82-.28.55-.24.12-.63.59l-.04 1.33 1.41 1.93.4-.08c.2-.47.07-1.57.07-2.12 1.1-.43.4-.79 1.5-1.14-.04.79-.36.31-.28 1.02.04.35.16.7.35.9.71-.27.6-.7.6-1.13 0-2.16.23-1.61 1.29-2.4l.04-.9-.75-.04c-.27.24-.2.4-.7.35-.36 0-.52-.04-.9.12Zm10.75-2h.6c.15.27.07.67.07 1.02l1.06.63c.24-.32.12-.32.24-.47.23-.32.15-.08.43-.2.27-.16.43-.43.7-.67l.36.36c0 .5-.16.66.16 1.1.39 0 .3-.04.58-.2.28-.16.2-.08.44 0 .15-.2.07-.12.2-.32.19-.3 0-.03.27-.27.35-.27.08-.4.55-.63.94.79.35.98.31 2.12.63-.16.67-.63.94-1.18.28-.58.04-1.37.28-1.92-2.71-.74-1.06-.55-2.63.08-3.26 1.33-2.71.04-3.06-.2-.2-.08-.36-.04-.6-.11-.27-.08-.27-.16-.5-.28-.75.12-.98.12-1.1.9l.7.24Zm7.07 6.55c-.16-.15-.4-.35-.59-.5L51 29.77c-.39-.35-.23-.31-.82-.5-.59.54-.75.42-1.14 1.25-.35.04-.35.08-.63-.08-.15.08-.15.12-.31.2l-.2.08-.12.07c.24.51.2.51.6.79.23.2.15.16.27.35.12.16 0 .08.2.2l.2.04c-.28.78-.95.31-1.23.35-.27.04-.23.24-.66.12-.4-.08-.2-.2-.67-.2-.35.4-.31.75-.24 1.34l.55-.08.08.55c1.73.39 1.38-.16 3.06-.75 0-1.69.08-1.3-.43-1.37l.36-1.06c.2-.08.07 0 .3-.08.13-.04.2-.12.36-.2.75.04.67.08 1.34-.15.23.23.2.39.74.35l.16-.67ZM13.84 39.6c.35-.2.43-.36.63-.8.35-.7.27-.27.7-.7-.78 0-1.3.2-1.49-.55.2-.2.7-.5.98-.62.55-.24.51.27 1.18-.12l-.04-1.73a3.64 3.64 0 0 1-.9-.98.86.86 0 0 0-.59.7c-.08.56.04.63.31.87-.04.75-.35.75-.98.9-.74.16-.82-.23-1.14-.63l-.86.24c-.31 1.41.79 1.65.86 1.8.12.83-.3 1.1.24 1.61 1.06-.23.59-.2 1.1 0Zm26.53-17.5c.15-.09.08-.05.23-.17.24-.15 0-.07.28-.15.23-.08.5-.08.7-.2.32-.2.4-.67 1.1-.47.75.24.95-.12 1.46-.08.58.04.11.36 1.37-.08-.16-.43-.79-.74-1.18-.9l-.16-.4c-.58.09-.62.05-1.13-.1-.75-.24-.71.27-1.18 0-.08-.05-.04-.05-.2-.13-.47.32-.59.47-.82 1.06-.24.6-.51.98-.47 1.61Zm15.19 15.18c.27-.2.3-.04.27-.43l-.63.04c-.43.7 0 .15-.63.9-.23.27-.47.55-.66.74-1.3 0-1.18.16-2.08-.3a5.26 5.26 0 0 0-1.93-.4c.12.4.95 1.02 1.3 1.21.27.16.35 0 .63.16.27.16.04.2.55.28.39.08.31.11.59.2.39.11.35 0 .7-.09.32-.03.43.04.79 0 .47-.2.47-.39 1.1-.58v-1.73ZM31.5 7.92c-.32.51-.12.32-.12.83 0 .4-.16.47-.08.98.32.59.36.12.6.9.54.12.7.16 1.09-.2-.16-.58-1.02-1.29-.75-2l.95-1.21c.15-.08.2-.04.31-.08.94-.24-.27-1.22-.55-1.18-.4.24-.67.47-1.06.75-.5.39-.55.5-.4 1.21ZM23.18 25.7c-.28 0-.43-.04-.7 0-.32 0-.48-.08-.75-.08-.2.24-.32.36-.51.63-.2.28-.4.35-.32.79l.51-.04c.32.39 0 .31.55.47 0 .82-.47.35-.47 1.3.43 0 1.26-.48 1.69-.71-.2-.6-.7-.47-.16-1.8l.24.19c.66-.12 1.41-.43 1.1-1.06-.51-.08-.79.08-1.18.31Zm26.76-4.86c.55.39.87 0 1.77.07.43.83.12.71.78 1.1.44.28.99-.04 1.38-.23l.04-.75-.24-.2c.16-.23.08.04.08-.35-.43-.23-1.45-.86-1.92-.66-.94.3-1.3.15-1.89 1.02Zm-7.88 7.02c-.32-.47-.12-.59-.55-.9-.04.27-.04 2.35-.04 2.47.08.24.43.43.66.59.47.23.75.04.98-.2 0-1.14-.23-1.49-.15-1.8.08-.36.2-.43.2-.9 0-.36-.08-.71-.08-1.1-.55.07-.24.11-.55-.24-.51.79 0 1.57-.47 2.08ZM31.5 34.3c.59-.55.4-1.8.35-2.71-.35-.16-.23 0-.55-.28-.08-.04-.04-.07-.15-.11-.44.04-.79.11-1.02.43.47.15.82.47.5 1.1-.2.39-.66.39-1.13.47 0 .43.66.98.94 1.17.2.04.74 0 1.06-.07Zm15.93-18.96c.28.24.4.47.63.7.67.05.78.09 1.37-.15.6-.23.79-.04 1.22.2l.51-.2c-.08-1.73-3.02-2-3.73-.55Zm-12.87-1.29c-.35-.51-.59-.47-1.3-.47-.15.3.12.11-.3.54.19.24.23.4.5.6.2.15.43.23.63.43.4.39.47.9 1.3.27 0-.27-.08-.43-.08-.63s.3-1.02.15-1.84l-.78-.04c.15.4-.04.63-.12 1.14Zm14.95-1.89c.32-.15.28-.31.59-.43.47.4.43.4 1.14.67.9.31.67 0 1.53 0-.24-.7-.2.16-.28-1.18-.55-.16-.2-.08-.55-.35-.5 0-.3.15-.78 0-.4-.12-.51-.08-.9 0-.79.04-.75.47-.75 1.3Zm-35.59 5.58c-.16.7.04.5.7.9.4.23.2.31.83.55.31-.16.7-.47.7-.9-.31-.36-.27.03-.43-.36L16 16.6c-1.93-.2-1.5.43-1.65.74-.12.28-.24.24-.43.4Zm29.23-1.34c.36.2.44.04.63.35-.35.24-.59.12-.66.63.15.67 2 .63 2.27 0v-1.25l-.98-.12c-.7 0-.4-.24-1.02-.35a1.1 1.1 0 0 0-.24.74Zm13.62 1.77c.51.5.6.23 1.1-.12.59.16.47.4 1.26.31.78-.08.9.2 1.37.12.12-.98-2.08-1.41-3.1-1.3l-.63.99ZM34.4 36.65c.36-1.41.75-.9.98-1.1.24-.2 0-.23.51-.55.16-.08.28-.04.28-.74-.67-.04-.24.15-.67.27-.35.08-.16-.2-.63.08-.39.24-.78.4-1.06.75-.07 1.13 0 1.72.83 2.23.04-.43-.12-.7-.24-.94Zm3.97-23.75c-.04.71-.2 1.26.08 1.9.27.7.74.7 1.37.38 0-1.33-.86-.47-.75-1.64.16-.32.75-.28.79-.98l-1.5.35Zm21.27 11.59-.63-.2c.04.23.04.35.35.55l.24-.28c.5.12 2.47.36 2.7.47.36.2.32.24.87.2a4.58 4.58 0 0 0-2.6-1.57c.17-.23.05-.08 0-.12-.3.36-.7.6-.93.95Zm-4.71 3.88c.2.24.15.24.47.31l-.28.87.87.27c.55-.82.5-.2 1.33-.35a1.2 1.2 0 0 0 0-.9c-.31-.16-.86-.12-1.25-.2-.4-.08-.87-.31-1.14 0Zm-26.37-2.63c.15.12.3.16.5.28.71.39-.03.39 1.18.31v-1.14c-.39-.16-.78-.5-1.17-.59l-.51 1.14Zm34.61 4.32c-.24.35-.35.27-.55.67 1.3.43.35.03 1.14.2.39.07.74.23 1.17.27-.03-.36-.03-.36-.3-.6-.32-.23-.24-.3-.48-.58-.51.08-.27.16-.98.04Zm-15.86-12.6c.16.82.16.7 1.1.7.08-.46-.15-.66-.15-1.25-.24.16-.63.4-.95.55ZM33.85 2.43l.98-.04.08-.86c-.23.15-.11.43-.11.78-.36 0-.63-.04-.95.12Z" clip-rule="evenodd"/><path fill="#FEFEFE" fill-rule="evenodd" d="M46.37 24.8c0-.35.04-.75-.08-1.02h-.58c.23.12.23.04.58.04v.74c0 .2.04.2.08.24ZM6.07 39.48c.27-.08.04.08.27-.2a.82.82 0 0 0 .16-.24c-.4.08-.27.08-.43.44ZM23.69 7.06c.04 0 .04-.08.08-.04 0 .04.08-.08.12-.08.11-.08.03-.04.23-.08-.04-.03-.04-.07-.04-.07s-.04-.04-.04-.08c0 0-.04-.04-.04-.08-.04.08-.08.08-.11.16-.08.11-.12.2-.2.27ZM3.16 37.48c-.07-.12.16-.12-.27-.08l.12.23.15-.15Z" clip-rule="evenodd"/></svg>